<svg id="SvgjsSvg1000" xmlns="http://www.w3.org/2000/svg" version="1.1" xmlns:xlink="http://www.w3.org/1999/xlink" xmlns:svgjs="http://svgjs.com/svgjs" width="155" height="129"><defs id="SvgjsDefs1001"></defs><path id="SvgjsPath1007" d="M2443.41 7852.76L2443.41 7930.16L2459.77 7930.16C2458.46 7939.43 2453.0099999999998 7946.76 2443.41 7952.13L2443.41 7980.6900000000005C2457.08 7977.76 2469.33 7972.1900000000005 2480.1499999999996 7963.97C2490.9799999999996 7955.75 2498.5899999999997 7945.66 2502.9799999999996 7933.7C2507.3699999999994 7921.73 2509.5699999999997 7906.5599999999995 2509.5699999999997 7888.16L2509.5699999999997 7852.76ZM2421.19 7852.76L2421.19 7888.16C2421.19 7906.5599999999995 2419 7921.73 2414.6 7933.7C2410.21 7945.66 2402.6 7955.75 2391.77 7963.97C2380.95 7972.1900000000005 2368.7 7977.76 2355.03 7980.6900000000005L2355.03 7952.13C2364.8 7946.76 2370.3300000000004 7939.43 2371.63 7930.16L2355.03 7930.16L2355.03 7852.76Z " fill="#dadce8" transform="matrix(1,0,0,1,-2355,-7852)"></path></svg>