<svg id="SvgjsSvg1008" xmlns="http://www.w3.org/2000/svg" version="1.1" xmlns:xlink="http://www.w3.org/1999/xlink" xmlns:svgjs="http://svgjs.com/svgjs" width="38" height="27"><defs id="SvgjsDefs1009"></defs><path id="SvgjsPath1010" d="M2057.47 740.743L2046.1599999999999 729.4870000000001C2045.4699999999998 728.801 2044.35 728.801 2043.6699999999998 729.4870000000001C2042.9799999999998 730.1750000000001 2042.9799999999998 731.287 2043.6699999999998 731.9750000000001L2051.95 740.2270000000001L2021.7699999999998 740.2270000000001C2020.7899999999997 740.2270000000001 2019.9999999999998 741.0140000000001 2019.9999999999998 741.9860000000001C2019.9999999999998 742.9570000000001 2020.7899999999997 743.7440000000001 2021.7699999999998 743.7440000000001L2051.95 743.7440000000001L2043.6699999999998 751.9980000000002C2042.9799999999998 752.6850000000002 2042.9799999999998 753.7980000000001 2043.6699999999998 754.4850000000001C2044.0099999999998 754.8290000000002 2044.4599999999998 755.0000000000001 2044.9099999999999 755.0000000000001C2045.37 755.0000000000001 2045.82 754.8290000000001 2046.1599999999999 754.4850000000001L2057.47 743.2300000000001C2058.16 742.5430000000001 2058.16 741.4300000000002 2057.47 740.7430000000002Z " fill="#fc6337" transform="matrix(1,0,0,1,-2020,-728)"></path></svg>